<?xml version="1.0" encoding="iso-8859-1"?>
<!-- Generator: Adobe Illustrator 19.0.0, SVG Export Plug-In . SVG Version: 6.00 Build 0)  -->
<svg version="1.1" id="Layer_1" xmlns="http://www.w3.org/2000/svg" xmlns:xlink="http://www.w3.org/1999/xlink" x="0px" y="0px"
	 viewBox="0 0 512.001 512.001" style="enable-background:new 0 0 512.001 512.001;" xml:space="preserve">
<path style="fill:#E279A9;" d="M19.425,288.069c5.379,0,27.383,0,27.383,0c0-53.051,62.342-65.763,62.342-65.763
	c-1.709-30.071-21.268-41.808-21.268-43.274s1.709-2.446,13.203-2.933c25.425-1.082,49.851,13.748,64.308,30.68
	c34.249-27.149,83.373-44.167,137.955-44.167c103.499,0,187.401,61.174,187.401,136.63c0,25.198-9.365,48.795-25.685,69.06
	c-1.133,22.569-6.29,69.244-29.045,102.393h-64.296c0,0,7.023-16.657,1.068-44.519c-21.478,6.251-44.91,9.693-69.442,9.693
	c-18.077,0-35.556-1.869-52.092-5.355c-5.033,9.309-15.782,27.537-29.4,41.154h-61.611c0,0,5.157-26.753,1.961-53.734
	c-59.098-9.755-122.534-56.711-134.469-67.041c-12.716-11-16.379-22.734-16.379-29.337s0-15.892,0-23.716
	S14.049,288.069,19.425,288.069z"/>
<g style="opacity:0.4;">
	<circle cx="106.423" cy="274.274" r="20.046"/>
</g>
<circle cx="106.423" cy="274.274" r="13.668"/>
<circle style="fill:#FFFFFF;" cx="103.384" cy="270.311" r="4.252"/>
<path style="fill:#E58DB6;" d="M21.025,338.399c0,5.805-4.708,10.513-10.513,10.513l0,0C4.708,348.911,0,344.207,0,338.399v-48.443
	c0-5.805,4.708-10.513,10.513-10.513l0,0c5.805,0,10.513,4.705,10.513,10.513V338.399z"/>
<g>
	<circle style="fill:#D06696;" cx="371.002" cy="361.361" r="19.576"/>
	<circle style="fill:#D06696;" cx="367.631" cy="316.235" r="13.396"/>
	<circle style="fill:#D06696;" cx="334.245" cy="336.994" r="11.213"/>
</g>
<path style="fill:#5D3145;" d="M369.807,188.21c0,3.214-2.605,5.82-5.82,5.82H236.684c-3.214,0-5.82-2.605-5.82-5.82l0,0
	c0-3.214,2.605-5.82,5.82-5.82h127.304C367.202,182.394,369.807,184.999,369.807,188.21L369.807,188.21z"/>
<g>
	<g>
		<circle style="fill:#C7A63D;" cx="304.29" cy="124.579" r="84.245"/>
		<g style="opacity:0.4;">
			<path style="fill:#8F7A2E;" d="M235.33,172.96c0.674,0.958,1.363,1.904,2.073,2.833h133.75c0.71-0.929,1.402-1.875,2.073-2.833
				H235.33z"/>
			<path style="fill:#8F7A2E;" d="M230.782,165.748c0.538,0.955,1.079,1.904,1.653,2.833h143.692
				c0.571-0.929,1.115-1.878,1.653-2.833H230.782z"/>
			<path style="fill:#8F7A2E;" d="M241.007,180.173c0.846,0.964,1.718,1.907,2.608,2.833h121.327
				c0.89-0.926,1.762-1.869,2.608-2.833H241.007z"/>
			<path style="fill:#8F7A2E;" d="M227.18,158.536c0.42,0.952,0.843,1.901,1.295,2.833H380.08c0.452-0.931,0.878-1.881,1.295-2.833
				H227.18z"/>
			<path style="fill:#8F7A2E;" d="M224.394,151.323c0.316,0.949,0.642,1.898,0.994,2.833h157.783
				c0.352-0.934,0.677-1.884,0.994-2.833H224.394z"/>
			<path style="fill:#8F7A2E;" d="M242.223,67.616h124.113c-0.887-0.964-1.792-1.91-2.724-2.833H244.946
				C244.018,65.706,243.11,66.652,242.223,67.616z"/>
			<path style="fill:#8F7A2E;" d="M248.146,187.382c1.088,0.976,2.206,1.916,3.344,2.833h105.578
				c1.139-0.917,2.256-1.857,3.344-2.833H248.146L248.146,187.382z"/>
			<path style="fill:#8F7A2E;" d="M257.422,194.595c1.484,0.994,3.013,1.931,4.563,2.833h84.588c1.55-0.902,3.078-1.839,4.563-2.833
				H257.422z"/>
			<path style="fill:#8F7A2E;" d="M220.033,124.579c0,0.245,0.018,0.485,0.018,0.73h168.458c0-0.245,0.018-0.485,0.018-0.73
				c0-0.704-0.038-1.402-0.053-2.103H220.086C220.071,123.177,220.033,123.875,220.033,124.579z"/>
			<path style="fill:#8F7A2E;" d="M330.51,204.64c2.534-0.831,5.018-1.774,7.446-2.833h-67.351c2.425,1.059,4.909,2.002,7.446,2.833
				H330.51z"/>
			<path style="fill:#8F7A2E;" d="M222.336,144.111c0.225,0.952,0.464,1.896,0.724,2.833h162.44c0.26-0.937,0.5-1.884,0.724-2.833
				H222.336z"/>
			<path style="fill:#8F7A2E;" d="M238.482,71.996c-0.745,0.929-1.473,1.872-2.176,2.833h135.947
				c-0.704-0.961-1.431-1.904-2.176-2.833H238.482z"/>
			<path style="fill:#8F7A2E;" d="M233.31,79.208c-0.594,0.931-1.177,1.875-1.739,2.833h145.413
				c-0.559-0.958-1.144-1.901-1.739-2.833H233.31z"/>
			<path style="fill:#8F7A2E;" d="M220.94,136.901c0.139,0.952,0.308,1.893,0.479,2.833h165.719c0.172-0.94,0.34-1.881,0.479-2.833
				H220.94z"/>
			<path style="fill:#8F7A2E;" d="M229.179,86.421c-0.476,0.934-0.934,1.878-1.378,2.833h152.957
				c-0.441-0.955-0.902-1.898-1.378-2.833H229.179z"/>
			<path style="fill:#8F7A2E;" d="M264.401,50.359c-1.65,0.887-3.259,1.842-4.841,2.833h89.435
				c-1.582-0.994-3.188-1.946-4.841-2.833H264.401z"/>
			<path style="fill:#8F7A2E;" d="M282.655,43.149c-2.969,0.787-5.867,1.739-8.7,2.833h60.65c-2.833-1.094-5.731-2.046-8.7-2.833
				C325.906,43.149,282.655,43.149,282.655,43.149z"/>
			<path style="fill:#8F7A2E;" d="M253.238,57.571c-1.195,0.914-2.363,1.86-3.51,2.833h109.103c-1.147-0.973-2.312-1.919-3.51-2.833
				H253.238z"/>
			<path style="fill:#8F7A2E;" d="M220.204,129.689c0.056,0.949,0.127,1.893,0.213,2.833h167.724c0.086-0.94,0.16-1.887,0.216-2.833
				H220.204z"/>
			<path style="fill:#8F7A2E;" d="M220.559,115.264c-0.104,0.937-0.18,1.887-0.251,2.833h167.943
				c-0.071-0.946-0.148-1.896-0.251-2.833H220.559z"/>
			<path style="fill:#8F7A2E;" d="M225.926,93.63c-0.37,0.937-0.73,1.881-1.068,2.833H383.7c-0.337-0.952-0.698-1.896-1.068-2.833
				H225.926z"/>
			<path style="fill:#8F7A2E;" d="M223.448,100.842c-0.275,0.94-0.553,1.881-0.795,2.833h163.253
				c-0.242-0.952-0.52-1.893-0.795-2.833H223.448z"/>
			<path style="fill:#8F7A2E;" d="M221.665,108.055c-0.186,0.937-0.352,1.884-0.506,2.833h166.24
				c-0.154-0.949-0.316-1.896-0.506-2.833H221.665z"/>
		</g>
		<circle style="fill:#F1CB49;" cx="294.827" cy="124.579" r="84.245"/>
		<circle style="fill:#D9BA55;" cx="294.827" cy="124.579" r="68.043"/>
		<circle style="fill:#F8E7A9;" cx="294.827" cy="124.579" r="63.14"/>
		<path style="fill:#F6E296;" d="M297.521,202.088c-1.118,0-2.04-0.887-2.082-2.017c-0.041-1.15,0.861-2.117,2.014-2.156
			c0.68-0.024,1.363-0.059,2.04-0.104c1.168-0.074,2.144,0.798,2.215,1.949c0.074,1.15-0.798,2.144-1.946,2.218
			c-0.719,0.047-1.44,0.08-2.168,0.106C297.571,202.088,297.544,202.088,297.521,202.088z M280.757,200.828
			c-0.13,0-0.26-0.012-0.39-0.038c-0.71-0.133-1.416-0.275-2.12-0.429c-1.127-0.245-1.839-1.357-1.597-2.481
			c0.245-1.127,1.36-1.845,2.481-1.597c0.668,0.145,1.337,0.284,2.011,0.411c1.133,0.213,1.878,1.304,1.665,2.437
			C282.614,200.13,281.739,200.828,280.757,200.828z M316.189,199.069c-0.902,0-1.733-0.586-1.999-1.493
			c-0.325-1.109,0.305-2.268,1.411-2.59c0.659-0.192,1.307-0.396,1.955-0.609c1.097-0.361,2.274,0.242,2.632,1.337
			c0.358,1.094-0.24,2.271-1.334,2.629c-0.683,0.225-1.378,0.438-2.07,0.645C316.582,199.045,316.384,199.069,316.189,199.069z
			 M262.76,195.009c-0.296,0-0.597-0.062-0.884-0.198c-0.659-0.308-1.31-0.624-1.955-0.952c-1.029-0.52-1.437-1.777-0.92-2.806
			c0.523-1.023,1.771-1.437,2.803-0.92c0.609,0.311,1.224,0.609,1.842,0.899c1.044,0.491,1.49,1.73,1.002,2.774
			C264.298,194.565,263.547,195.009,262.76,195.009z M333.509,191.478c-0.71,0-1.405-0.364-1.792-1.017
			c-0.588-0.991-0.266-2.274,0.722-2.86c0.586-0.349,1.165-0.707,1.736-1.073c0.973-0.621,2.262-0.334,2.883,0.636
			c0.618,0.973,0.334,2.262-0.636,2.88c-0.609,0.387-1.224,0.769-1.842,1.136C334.239,191.38,333.873,191.478,333.509,191.478z
			 M246.789,184.881c-0.467,0-0.94-0.157-1.328-0.479c-0.556-0.461-1.106-0.926-1.65-1.402c-0.869-0.757-0.958-2.073-0.198-2.942
			c0.754-0.869,2.076-0.958,2.939-0.201c0.52,0.449,1.041,0.893,1.567,1.328c0.887,0.733,1.014,2.049,0.278,2.939
			C247.983,184.623,247.389,184.881,246.789,184.881z M348.389,179.824c-0.532,0-1.062-0.201-1.47-0.606
			c-0.816-0.81-0.822-2.132-0.012-2.951c0.482-0.488,0.955-0.979,1.422-1.476c0.79-0.843,2.114-0.878,2.948-0.092
			c0.84,0.79,0.881,2.108,0.092,2.948c-0.494,0.526-0.994,1.047-1.502,1.558C349.465,179.617,348.927,179.824,348.389,179.824z
			 M233.825,171.118c-0.645,0-1.28-0.299-1.686-0.858c-0.426-0.58-0.843-1.168-1.254-1.762c-0.654-0.949-0.417-2.25,0.532-2.904
			c0.952-0.654,2.25-0.417,2.904,0.532c0.387,0.562,0.784,1.121,1.183,1.671c0.677,0.931,0.476,2.236-0.452,2.916
			C234.682,170.988,234.25,171.118,233.825,171.118z M359.934,164.843c-0.361,0-0.722-0.092-1.053-0.284
			c-0.994-0.583-1.325-1.863-0.745-2.857c0.346-0.588,0.683-1.183,1.017-1.786c0.556-1.011,1.827-1.375,2.833-0.822
			c1.011,0.556,1.378,1.825,0.819,2.833c-0.349,0.633-0.707,1.263-1.068,1.884C361.344,164.477,360.649,164.843,359.934,164.843z
			 M224.681,154.579c-0.828,0-1.615-0.5-1.94-1.316c-0.263-0.668-0.523-1.343-0.772-2.02c-0.396-1.082,0.16-2.28,1.242-2.676
			c1.076-0.396,2.28,0.16,2.673,1.239c0.237,0.642,0.482,1.28,0.733,1.916c0.426,1.07-0.098,2.283-1.171,2.712
			C225.196,154.532,224.936,154.579,224.681,154.579z M367.385,147.461c-0.189,0-0.384-0.027-0.574-0.08
			c-1.109-0.316-1.748-1.476-1.428-2.582c0.186-0.656,0.367-1.316,0.535-1.978c0.29-1.115,1.428-1.786,2.54-1.502
			c1.115,0.287,1.786,1.422,1.502,2.54c-0.183,0.701-0.37,1.399-0.568,2.091C369.127,146.867,368.296,147.461,367.385,147.461z
			 M219.953,136.272c-1.038,0-1.934-0.769-2.067-1.825c-0.089-0.713-0.172-1.428-0.242-2.147c-0.112-1.147,0.725-2.168,1.872-2.283
			c1.153-0.109,2.168,0.727,2.28,1.872c0.065,0.68,0.145,1.36,0.231,2.037c0.145,1.141-0.668,2.185-1.81,2.33
			C220.127,136.269,220.039,136.272,219.953,136.272z M370.26,128.772c-0.021,0-0.038,0-0.056,0
			c-1.153-0.03-2.061-0.988-2.034-2.141c0.018-0.68,0.03-1.363,0.03-2.049l-0.003-0.308c0-1.153,0.931-2.088,2.088-2.088
			c1.153,0,2.085,0.931,2.085,2.088l0.003,0.266c0,0.766-0.012,1.484-0.03,2.203C372.312,127.876,371.386,128.772,370.26,128.772z
			 M219.917,117.364c-0.083,0-0.169-0.003-0.254-0.018c-1.147-0.139-1.958-1.18-1.816-2.321c0.086-0.719,0.186-1.431,0.293-2.144
			c0.172-1.138,1.239-1.901,2.372-1.757c1.141,0.172,1.922,1.233,1.757,2.372c-0.104,0.677-0.195,1.351-0.281,2.034
			C221.857,116.589,220.958,117.364,219.917,117.364z M368.358,109.655c-0.949,0-1.807-0.654-2.032-1.62
			c-0.154-0.665-0.313-1.328-0.488-1.984c-0.293-1.115,0.379-2.256,1.493-2.546c1.112-0.278,2.253,0.376,2.543,1.49
			c0.183,0.698,0.355,1.402,0.518,2.105c0.257,1.124-0.444,2.241-1.567,2.499C368.672,109.637,368.515,109.655,368.358,109.655z
			 M224.566,99.036c-0.254,0-0.515-0.047-0.766-0.145c-1.07-0.426-1.597-1.638-1.174-2.709c0.266-0.671,0.541-1.343,0.822-2.005
			c0.449-1.062,1.674-1.555,2.735-1.103c1.062,0.449,1.552,1.677,1.103,2.735c-0.269,0.627-0.529,1.263-0.781,1.901
			C226.183,98.536,225.4,99.036,224.566,99.036z M361.829,91.915c-0.754,0-1.482-0.408-1.854-1.124
			c-0.313-0.606-0.636-1.204-0.967-1.798c-0.559-1.005-0.195-2.277,0.807-2.836c1.011-0.565,2.28-0.195,2.839,0.807
			c0.346,0.627,0.689,1.263,1.026,1.904c0.529,1.023,0.13,2.28-0.893,2.815C362.483,91.838,362.154,91.915,361.829,91.915z
			 M233.653,82.443c-0.423,0-0.849-0.127-1.221-0.396c-0.931-0.674-1.141-1.978-0.464-2.913c0.423-0.586,0.855-1.165,1.295-1.736
			c0.701-0.917,2.014-1.088,2.925-0.381c0.917,0.704,1.085,2.014,0.384,2.925c-0.417,0.541-0.822,1.091-1.224,1.641
			C234.937,82.145,234.298,82.443,233.653,82.443z M351.083,76.366c-0.571,0-1.144-0.237-1.552-0.695
			c-0.455-0.509-0.92-1.014-1.387-1.505c-0.793-0.837-0.757-2.156,0.077-2.951c0.837-0.793,2.159-0.757,2.948,0.077
			c0.497,0.526,0.988,1.059,1.467,1.597c0.769,0.861,0.695,2.176-0.163,2.945C352.077,76.189,351.577,76.366,351.083,76.366z
			 M246.573,68.631c-0.6,0-1.195-0.257-1.609-0.754c-0.733-0.887-0.612-2.203,0.275-2.939c0.553-0.458,1.112-0.914,1.674-1.357
			c0.908-0.713,2.218-0.556,2.93,0.346c0.713,0.905,0.556,2.218-0.346,2.93c-0.538,0.426-1.068,0.855-1.597,1.292
			C247.513,68.474,247.04,68.631,246.573,68.631z M336.815,63.952c-0.402,0-0.804-0.115-1.165-0.355
			c-0.565-0.381-1.138-0.754-1.715-1.118c-0.973-0.615-1.269-1.901-0.654-2.877c0.612-0.976,1.901-1.266,2.877-0.651
			c0.612,0.384,1.218,0.781,1.819,1.183c0.958,0.645,1.209,1.94,0.568,2.895C338.146,63.627,337.486,63.952,336.815,63.952z
			 M262.497,58.449c-0.781,0-1.529-0.441-1.887-1.192c-0.494-1.041-0.05-2.286,0.991-2.777c0.651-0.308,1.301-0.609,1.961-0.899
			c1.056-0.461,2.289,0.015,2.753,1.068c0.464,1.053-0.012,2.286-1.068,2.75c-0.624,0.275-1.242,0.556-1.854,0.849
			C263.1,58.384,262.795,58.449,262.497,58.449z M319.912,55.469c-0.231,0-0.464-0.038-0.695-0.121
			c-0.642-0.225-1.292-0.444-1.943-0.654c-1.097-0.352-1.7-1.529-1.348-2.623c0.355-1.097,1.532-1.697,2.626-1.348
			c0.689,0.222,1.378,0.452,2.058,0.695c1.085,0.381,1.656,1.576,1.272,2.661C321.577,54.936,320.773,55.469,319.912,55.469z
			 M280.455,52.562c-0.982,0-1.854-0.695-2.046-1.694c-0.216-1.13,0.523-2.224,1.656-2.443c0.707-0.133,1.416-0.26,2.129-0.376
			c1.144-0.198,2.212,0.583,2.398,1.721c0.186,1.136-0.583,2.212-1.718,2.395c-0.677,0.112-1.348,0.231-2.023,0.361
			C280.719,52.55,280.585,52.562,280.455,52.562z M301.427,51.479c-0.062,0-0.124-0.003-0.186-0.009
			c-0.677-0.059-1.357-0.106-2.037-0.148c-1.153-0.065-2.032-1.053-1.961-2.203c0.062-1.15,1.047-2.046,2.2-1.964
			c0.724,0.041,1.443,0.095,2.162,0.157c1.15,0.101,1.996,1.112,1.898,2.259C303.405,50.66,302.495,51.479,301.427,51.479z"/>
		<path style="fill:#C7A63D;" d="M291.326,182.713v-12.701c-8.957-0.402-17.648-2.806-22.728-5.746l4.007-15.643
			c5.613,3.075,13.502,5.885,22.193,5.885c7.62,0,12.834-2.939,12.834-8.289c0-5.08-4.276-8.286-14.17-11.63
			c-14.304-4.811-24.065-11.497-24.065-24.464c0-11.763,8.292-20.984,22.595-23.793V73.634h13.103v11.763
			c8.954,0.399,14.969,2.274,19.381,4.412l-3.877,15.108c-3.478-1.473-9.625-4.548-19.251-4.548c-8.688,0-11.497,3.747-11.497,7.487
			c0,4.412,4.678,7.218,16.045,11.497c15.903,5.616,22.32,12.967,22.32,24.996c0,11.899-8.422,22.06-23.793,24.733v13.635h-13.097
			V182.713z"/>
		<path style="fill:#F1CB49;" d="M287.609,178.996v-12.701c-8.957-0.402-17.648-2.806-22.728-5.746l4.007-15.643
			c5.613,3.075,13.502,5.885,22.193,5.885c7.62,0,12.837-2.942,12.837-8.289c0-5.08-4.279-8.286-14.173-11.63
			c-14.304-4.808-24.065-11.497-24.065-24.464c0-11.763,8.292-20.984,22.595-23.793V69.917h13.103V81.68
			c8.954,0.399,14.969,2.274,19.381,4.412l-3.877,15.108c-3.478-1.473-9.625-4.548-19.251-4.548c-8.688,0-11.497,3.747-11.497,7.487
			c0,4.412,4.678,7.218,16.045,11.497c15.903,5.616,22.32,12.967,22.32,24.996c0,11.899-8.422,22.06-23.793,24.733v13.635h-13.097
			V178.996z"/>
	</g>
</g>
<path style="fill:#E279A9;" d="M476.237,270.131c0,0,33.776-1.204,28.205-39.004c0,0,28.799,53.429-26.026,62.158L476.237,270.131z"
	/>
<g>
</g>
<g>
</g>
<g>
</g>
<g>
</g>
<g>
</g>
<g>
</g>
<g>
</g>
<g>
</g>
<g>
</g>
<g>
</g>
<g>
</g>
<g>
</g>
<g>
</g>
<g>
</g>
<g>
</g>
</svg>
