<?xml version="1.0" encoding="utf-8"?>
<!-- Generator: Adobe Illustrator 23.0.3, SVG Export Plug-In . SVG Version: 6.00 Build 0)  -->
<svg version="1.1" id="Camada_1" xmlns="http://www.w3.org/2000/svg" xmlns:xlink="http://www.w3.org/1999/xlink" x="0px" y="0px"
	 viewBox="0 0 800 800" style="enable-background:new 0 0 800 800;" xml:space="preserve">
<style type="text/css">
	.st0{clip-path:url(#SVGID_2_);}
	.st1{fill:#FFFFFF;}
	.st2{opacity:0.5;enable-background:new    ;}
	.st3{clip-path:url(#SVGID_4_);fill:#FFFFFF;}
	.st4{clip-path:url(#SVGID_6_);}
	.st5{clip-path:url(#SVGID_8_);}
	.st6{clip-path:url(#SVGID_10_);}
	.st7{fill:#DF1E26;}
	.st8{clip-path:url(#SVGID_12_);}
	.st9{fill:#F6D927;}
</style>
<g>
	<g>
		<g>
			<defs>
				<ellipse id="SVGID_1_" cx="390.3" cy="399.5" rx="383.4" ry="386.4"/>
			</defs>
			<clipPath id="SVGID_2_">
				<use xlink:href="#SVGID_1_"  style="overflow:visible;"/>
			</clipPath>
			<g class="st0">
				<g>
					<g>
						<polygon class="st1" points="262,12.6 518.3,12.6 518.3,278.5 1159,270.8 1159,528.9 518.3,536.7 518.3,794.8 262,794.8 
							262,536.7 -378.6,528.9 -378.6,270.8 262,278.5 						"/>
					</g>
					<g>
						<polygon class="st1" points="-378.6,12.6 -206.6,20.3 1159,708.3 1159,787.1 987.1,794.8 -378.6,99.2 						"/>
					</g>
					<g>
						<g>
							<polygon class="st1" points="1159,12.6 987.1,20.3 -378.6,708.3 -378.6,787.1 -206.6,794.8 1159,99.2 							"/>
						</g>
					</g>
				</g>
			</g>
		</g>
	</g>
	<g class="st2">
		<g>
			<defs>
				<path id="SVGID_3_" d="M690.3,251.3c0,116.8-134.3,211.7-300,211.7c-165.7-0.1-300-94.8-300-211.7
					c0-116.9,134.3-211.7,300-211.7S690.3,134.4,690.3,251.3z"/>
			</defs>
			<clipPath id="SVGID_4_">
				<use xlink:href="#SVGID_3_"  style="overflow:visible;"/>
			</clipPath>
			<polygon class="st3" points="90.3,459.5 690.3,461.1 690.3,463 90.3,463 			"/>
			<polygon class="st3" points="90.3,136.2 690.3,137.8 690.3,461.1 90.3,459.5 			"/>
			<polygon class="st3" points="690.3,137.8 90.3,136.2 90.3,39.6 690.3,39.6 			"/>
		</g>
	</g>
	<g>
		<defs>
			<ellipse id="SVGID_5_" cx="400.5" cy="399.5" rx="396.4" ry="399.5"/>
		</defs>
		<clipPath id="SVGID_6_">
			<use xlink:href="#SVGID_5_"  style="overflow:visible;"/>
		</clipPath>
		<g class="st4">
			<g>
				<g>
					<defs>
						<rect id="SVGID_7_" x="-292.4" y="-64.2" width="1393.3" height="955.6"/>
					</defs>
					<clipPath id="SVGID_8_">
						<use xlink:href="#SVGID_7_"  style="overflow:visible;"/>
					</clipPath>
					<g class="st5">
						<rect x="-292.4" y="-64.2" width="1393.3" height="318.5"/>
					</g>
				</g>
				<g>
					<defs>
						<rect id="SVGID_9_" x="-292.4" y="-64.2" width="1393.3" height="955.6"/>
					</defs>
					<clipPath id="SVGID_10_">
						<use xlink:href="#SVGID_9_"  style="overflow:visible;"/>
					</clipPath>
					<g class="st6">
						<rect x="-292.4" y="254.2" class="st7" width="1393.3" height="318.5"/>
					</g>
				</g>
				<g>
					<defs>
						<rect id="SVGID_11_" x="-292.4" y="-64.2" width="1393.3" height="955.6"/>
					</defs>
					<clipPath id="SVGID_12_">
						<use xlink:href="#SVGID_11_"  style="overflow:visible;"/>
					</clipPath>
					<g class="st8">
						<rect x="-292.4" y="572.8" class="st9" width="1393.3" height="318.5"/>
					</g>
				</g>
				<g>
					<defs>
						<rect id="SVGID_13_" x="-292.4" y="-64.2" width="1393.3" height="955.6"/>
					</defs>
					<clipPath id="SVGID_14_">
						<use xlink:href="#SVGID_13_"  style="overflow:visible;"/>
					</clipPath>
				</g>
			</g>
		</g>
		<g class="st4">
		</g>
	</g>
</g>
</svg>
