<?xml version="1.0" encoding="utf-8"?>
<!-- Generator: Adobe Illustrator 23.0.3, SVG Export Plug-In . SVG Version: 6.00 Build 0)  -->
<svg version="1.1" id="Camada_1" xmlns="http://www.w3.org/2000/svg" xmlns:xlink="http://www.w3.org/1999/xlink" x="0px" y="0px"
	 viewBox="0 0 800 800" style="enable-background:new 0 0 800 800;" xml:space="preserve">
<style type="text/css">
	.st0{clip-path:url(#SVGID_2_);}
	.st1{clip-path:url(#SVGID_4_);fill:#2A378E;}
	.st2{clip-path:url(#SVGID_6_);fill:#F4CA28;}
	.st3{clip-path:url(#SVGID_8_);fill:#F4CA28;}
	.st4{clip-path:url(#SVGID_10_);fill:#F4CA28;}
	.st5{clip-path:url(#SVGID_12_);fill:#F4CA28;}
	.st6{clip-path:url(#SVGID_14_);fill:#F4CA28;}
	.st7{clip-path:url(#SVGID_16_);fill:#F4CA28;}
	.st8{clip-path:url(#SVGID_18_);fill:#F4CA28;}
	.st9{clip-path:url(#SVGID_20_);fill:#F4CA28;}
	.st10{clip-path:url(#SVGID_22_);fill:#F4CA28;}
	.st11{clip-path:url(#SVGID_24_);fill:#F4CA28;}
	.st12{clip-path:url(#SVGID_26_);fill:#F4CA28;}
	.st13{clip-path:url(#SVGID_28_);fill:#F4CA28;}
</style>
<g>
	<g>
		<defs>
			<circle id="SVGID_1_" cx="400" cy="400" r="398.7"/>
		</defs>
		<clipPath id="SVGID_2_">
			<use xlink:href="#SVGID_1_"  style="overflow:visible;"/>
		</clipPath>
		<g class="st0">
			<g>
				<g>
					<defs>
						<rect id="SVGID_3_" x="-313.6" y="-20.4" width="1447.8" height="844.6"/>
					</defs>
					<clipPath id="SVGID_4_">
						<use xlink:href="#SVGID_3_"  style="overflow:visible;"/>
					</clipPath>
					<rect x="-313.6" y="-20.4" class="st1" width="1447.8" height="844.6"/>
				</g>
				<g>
					<defs>
						<rect id="SVGID_5_" x="-313.6" y="-20.4" width="1447.8" height="844.6"/>
					</defs>
					<clipPath id="SVGID_6_">
						<use xlink:href="#SVGID_5_"  style="overflow:visible;"/>
					</clipPath>
					<polygon class="st2" points="410.3,73.5 399.8,105.9 365.7,105.9 393.2,126 382.7,158.4 410.3,138.3 437.9,158.4 427.3,126 
						454.9,105.9 420.8,105.9 					"/>
				</g>
				<g>
					<defs>
						<rect id="SVGID_7_" x="-313.6" y="-20.4" width="1447.8" height="844.6"/>
					</defs>
					<clipPath id="SVGID_8_">
						<use xlink:href="#SVGID_7_"  style="overflow:visible;"/>
					</clipPath>
					<polygon class="st3" points="420.8,669 410.3,636.5 399.8,669 365.7,669 393.2,689 382.7,721.4 410.3,701.4 437.9,721.4 
						427.3,689 454.9,669 					"/>
				</g>
				<g>
					<defs>
						<rect id="SVGID_9_" x="-313.6" y="-20.4" width="1447.8" height="844.6"/>
					</defs>
					<clipPath id="SVGID_10_">
						<use xlink:href="#SVGID_9_"  style="overflow:visible;"/>
					</clipPath>
					<polygon class="st4" points="128.8,419.9 156.3,439.9 145.8,407.5 173.4,387.4 139.3,387.4 128.8,355 118.2,387.4 84.1,387.4 
						111.7,407.5 101.2,439.9 					"/>
				</g>
				<g>
					<defs>
						<rect id="SVGID_11_" x="-313.6" y="-20.4" width="1447.8" height="844.6"/>
					</defs>
					<clipPath id="SVGID_12_">
						<use xlink:href="#SVGID_11_"  style="overflow:visible;"/>
					</clipPath>
					<polygon class="st5" points="269.5,111.2 259,143.7 224.9,143.7 252.5,163.7 242,196.1 269.5,176 297.1,196.1 286.6,163.7 
						314.2,143.7 280.1,143.7 					"/>
				</g>
				<g>
					<defs>
						<rect id="SVGID_13_" x="-313.6" y="-20.4" width="1447.8" height="844.6"/>
					</defs>
					<clipPath id="SVGID_14_">
						<use xlink:href="#SVGID_13_"  style="overflow:visible;"/>
					</clipPath>
					<polygon class="st6" points="166.5,214.3 156,246.7 121.9,246.7 149.4,266.8 138.9,299.1 166.5,279.1 194.1,299.1 183.5,266.8 
						211.1,246.7 177,246.7 					"/>
				</g>
				<g>
					<defs>
						<rect id="SVGID_15_" x="-313.6" y="-20.4" width="1447.8" height="844.6"/>
					</defs>
					<clipPath id="SVGID_16_">
						<use xlink:href="#SVGID_15_"  style="overflow:visible;"/>
					</clipPath>
					<polygon class="st7" points="177,528.2 166.5,495.8 156,528.2 121.9,528.2 149.4,548.3 138.9,580.7 166.5,560.7 194.1,580.7 
						183.5,548.3 211.1,528.2 					"/>
				</g>
				<g>
					<defs>
						<rect id="SVGID_17_" x="-313.6" y="-20.4" width="1447.8" height="844.6"/>
					</defs>
					<clipPath id="SVGID_18_">
						<use xlink:href="#SVGID_17_"  style="overflow:visible;"/>
					</clipPath>
					<polygon class="st8" points="280.1,631.3 269.5,598.9 259,631.3 224.9,631.3 252.5,651.3 241.9,683.7 269.5,663.7 297.1,683.7 
						286.6,651.3 314.2,631.3 					"/>
				</g>
				<g>
					<defs>
						<rect id="SVGID_19_" x="-313.6" y="-20.4" width="1447.8" height="844.6"/>
					</defs>
					<clipPath id="SVGID_20_">
						<use xlink:href="#SVGID_19_"  style="overflow:visible;"/>
					</clipPath>
					<polygon class="st9" points="736.5,387.4 702.4,387.4 691.8,355 681.3,387.4 647.2,387.4 674.7,407.5 664.2,439.9 691.8,419.9 
						719.4,439.9 708.9,407.5 					"/>
				</g>
				<g>
					<defs>
						<rect id="SVGID_21_" x="-313.6" y="-20.4" width="1447.8" height="844.6"/>
					</defs>
					<clipPath id="SVGID_22_">
						<use xlink:href="#SVGID_21_"  style="overflow:visible;"/>
					</clipPath>
					<polygon class="st10" points="551,111.2 540.5,143.7 506.4,143.7 534,163.7 523.5,196.1 551,176 578.6,196.1 568.1,163.7 
						595.7,143.7 561.6,143.7 					"/>
				</g>
				<g>
					<defs>
						<rect id="SVGID_23_" x="-313.6" y="-20.4" width="1447.8" height="844.6"/>
					</defs>
					<clipPath id="SVGID_24_">
						<use xlink:href="#SVGID_23_"  style="overflow:visible;"/>
					</clipPath>
					<polygon class="st11" points="637,266.8 626.5,299.1 654.1,279.1 681.7,299.1 671.1,266.8 698.7,246.7 664.6,246.7 
						654.1,214.3 643.6,246.7 609.5,246.7 					"/>
				</g>
				<g>
					<defs>
						<rect id="SVGID_25_" x="-313.6" y="-20.4" width="1447.8" height="844.6"/>
					</defs>
					<clipPath id="SVGID_26_">
						<use xlink:href="#SVGID_25_"  style="overflow:visible;"/>
					</clipPath>
					<polygon class="st12" points="664.6,528.2 654.1,495.8 643.6,528.2 609.5,528.2 637,548.3 626.5,580.7 654.1,560.7 
						681.7,580.7 671.1,548.3 698.7,528.2 					"/>
				</g>
				<g>
					<defs>
						<rect id="SVGID_27_" x="-313.6" y="-20.4" width="1447.8" height="844.6"/>
					</defs>
					<clipPath id="SVGID_28_">
						<use xlink:href="#SVGID_27_"  style="overflow:visible;"/>
					</clipPath>
					<polygon class="st13" points="561.6,631.3 551,598.9 540.5,631.3 506.4,631.3 534,651.3 523.5,683.7 551,663.7 578.6,683.7 
						568.1,651.3 595.7,631.3 					"/>
				</g>
			</g>
		</g>
	</g>
</g>
</svg>
