<?xml version="1.0" encoding="utf-8"?>
<!-- Generator: Adobe Illustrator 23.0.3, SVG Export Plug-In . SVG Version: 6.00 Build 0)  -->
<svg version="1.1" id="Camada_1" xmlns="http://www.w3.org/2000/svg" xmlns:xlink="http://www.w3.org/1999/xlink" x="0px" y="0px"
	 viewBox="0 0 800 800" style="enable-background:new 0 0 800 800;" xml:space="preserve">
<style type="text/css">
	.st0{opacity:0.5;fill:url(#SVGID_1_);enable-background:new    ;}
	.st1{fill:#FFFFFF;}
	.st2{clip-path:url(#SVGID_3_);}
	.st3{clip-path:url(#SVGID_6_);}
	.st4{fill:#314094;}
	.st5{clip-path:url(#SVGID_8_);}
	.st6{fill:#F3F4F5;}
	.st7{clip-path:url(#SVGID_10_);}
	.st8{fill:#D71E34;}
	.st9{fill:#D0D2D3;}
</style>
<linearGradient id="SVGID_1_" gradientUnits="userSpaceOnUse" x1="382.978" y1="345.216" x2="383.7855" y2="660.1434" gradientTransform="matrix(1 0 0 -1 0 800)">
	<stop  offset="0" style="stop-color:#FFFFFF;stop-opacity:0"/>
	<stop  offset="1" style="stop-color:#FFFFFF"/>
</linearGradient>
<path class="st0" d="M678,251.2c0,113.9-131.9,206.2-294.5,206.2S89,365,89,251.2C89,137.3,220.9,45,383.5,45
	C546.2,45,678,137.3,678,251.2z"/>
<path class="st1" d="M388.9,777C176.7,777,4.3,605.4,0.1,402.7C0,405.3,0,407.9,0,410.5c0,214.8,174.1,388.9,388.9,388.9
	s388.8-174.1,388.8-388.9c0-2.6,0-5.3-0.1-7.9C773.4,605.4,601,777,388.9,777z"/>
<g>
	<g>
		<defs>
			<ellipse id="SVGID_2_" cx="400" cy="401.6" rx="397.8" ry="399"/>
		</defs>
		<clipPath id="SVGID_3_">
			<use xlink:href="#SVGID_2_"  style="overflow:visible;"/>
		</clipPath>
		<g class="st2">
			<g>
				<g>
					<defs>
						<rect id="SVGID_5_" x="-270.9" y="0.6" width="1360.1" height="800"/>
					</defs>
					<clipPath id="SVGID_6_">
						<use xlink:href="#SVGID_5_"  style="overflow:visible;"/>
					</clipPath>
					<g class="st3">
						<rect x="-270.9" y="0.6" class="st4" width="501.5" height="800"/>
					</g>
				</g>
				<g>
					<defs>
						<rect id="SVGID_7_" x="-270.9" y="0.6" width="1360.1" height="800"/>
					</defs>
					<clipPath id="SVGID_8_">
						<use xlink:href="#SVGID_7_"  style="overflow:visible;"/>
					</clipPath>
					<g class="st5">
						<rect x="230.6" y="-4.4" class="st6" width="336.7" height="805"/>
					</g>
				</g>
				<g>
					<defs>
						<rect id="SVGID_9_" x="-270.9" y="0.6" width="1360.1" height="800"/>
					</defs>
					<clipPath id="SVGID_10_">
						<use xlink:href="#SVGID_9_"  style="overflow:visible;"/>
					</clipPath>
					<g class="st7">
						<rect x="567.3" y="0.6" class="st8" width="521.8" height="800"/>
					</g>
				</g>
			</g>
		</g>
	</g>
	<g>
		<g id="SVGID_4_">
			<path class="st9" d="M400,800.7c-53.7,0-105.8-10.6-154.9-31.4c-23.6-10-46.3-22.4-67.6-36.8c-21.1-14.3-40.9-30.7-58.9-48.7
				c-18-18.1-34.4-37.9-48.6-59.1c-14.4-21.3-26.7-44.1-36.7-67.8C12.6,507.8,2.1,455.5,2.1,401.6s10.5-106.2,31.3-155.4
				c10-23.7,22.3-46.5,36.7-67.8c14.2-21.1,30.6-41,48.6-59.1c18-18.1,37.8-34.5,58.9-48.7c21.3-14.4,44-26.8,67.6-36.8
				C294.2,13,346.3,2.5,400,2.5c53.7,0,105.8,10.6,154.9,31.4c23.6,10,46.3,22.4,67.6,36.8c21.1,14.3,40.9,30.7,58.9,48.7
				c18,18.1,34.4,37.9,48.6,59.1c14.4,21.3,26.7,44.1,36.7,67.8c20.8,49.2,31.3,101.5,31.3,155.4S787.4,507.8,766.7,557
				c-10,23.7-22.3,46.5-36.7,67.8c-14.2,21.1-30.6,41-48.6,59.1c-18,18.1-37.8,34.5-58.9,48.7c-21.3,14.4-44,26.8-67.6,36.8
				C505.8,790.2,453.7,800.7,400,800.7z M400,2.7C180.7,2.7,2.3,181.7,2.3,401.6c0,219.9,178.4,398.9,397.7,398.9
				s397.7-178.9,397.7-398.9C797.7,181.7,619.3,2.7,400,2.7z"/>
		</g>
	</g>
</g>
</svg>
