<?xml version="1.0" encoding="utf-8"?>
<!-- Generator: Adobe Illustrator 23.0.3, SVG Export Plug-In . SVG Version: 6.00 Build 0)  -->
<svg version="1.1" id="Camada_1" xmlns="http://www.w3.org/2000/svg" xmlns:xlink="http://www.w3.org/1999/xlink" x="0px" y="0px"
	 viewBox="0 0 800 800" style="enable-background:new 0 0 800 800;" xml:space="preserve">
<style type="text/css">
	.st0{display:none;}
	.st1{display:inline;}
	.st2{clip-path:url(#SVGID_2_);}
	.st3{fill:#FFFFFF;}
	.st4{display:inline;opacity:0.5;enable-background:new    ;}
	.st5{clip-path:url(#SVGID_4_);fill:#FFFFFF;}
	.st6{clip-path:url(#SVGID_6_);fill:#FFFFFF;}
	.st7{clip-path:url(#SVGID_8_);fill:#FFFFFF;}
	.st8{clip-path:url(#SVGID_10_);}
	.st9{clip-path:url(#SVGID_12_);}
	.st10{clip-path:url(#SVGID_14_);}
	.st11{fill:#DF1E26;}
	.st12{clip-path:url(#SVGID_16_);}
	.st13{fill:#F6D927;}
	.st14{clip-path:url(#SVGID_20_);}
	.st15{fill:#EF081F;}
	.st16{fill:#001F80;}
</style>
<g class="st0">
	<g class="st1">
		<g>
			<g>
				<defs>
					<ellipse id="SVGID_1_" cx="390.3" cy="399.5" rx="383.4" ry="386.4"/>
				</defs>
				<clipPath id="SVGID_2_">
					<use xlink:href="#SVGID_1_"  style="overflow:visible;"/>
				</clipPath>
				<g class="st2">
					<g>
						<g>
							<polygon class="st3" points="262,12.6 518.3,12.6 518.3,278.5 1159,270.8 1159,528.9 518.3,536.7 518.3,794.8 262,794.8 
								262,536.7 -378.6,528.9 -378.6,270.8 262,278.5 							"/>
						</g>
						<g>
							<polygon class="st3" points="-378.6,12.6 -206.6,20.3 1159,708.3 1159,787.1 987.1,794.8 -378.6,99.2 							"/>
						</g>
						<g>
							<g>
								<polygon class="st3" points="1159,12.6 987.1,20.3 -378.6,708.3 -378.6,787.1 -206.6,794.8 1159,99.2 								"/>
							</g>
						</g>
					</g>
				</g>
			</g>
		</g>
	</g>
	<g class="st4">
		<g>
			<g>
				<defs>
					<path id="SVGID_3_" d="M690.3,251.3c0,116.8-134.3,211.7-300,211.7c-165.7-0.1-300-94.8-300-211.7s134.3-211.7,300-211.7
						S690.3,134.4,690.3,251.3z"/>
				</defs>
				<clipPath id="SVGID_4_">
					<use xlink:href="#SVGID_3_"  style="overflow:visible;"/>
				</clipPath>
				<polygon class="st5" points="90.3,459.5 690.3,461.1 690.3,463 90.3,463 				"/>
			</g>
			<g>
				<defs>
					<path id="SVGID_5_" d="M690.3,251.3c0,116.8-134.3,211.7-300,211.7c-165.7-0.1-300-94.8-300-211.7s134.3-211.7,300-211.7
						S690.3,134.4,690.3,251.3z"/>
				</defs>
				<clipPath id="SVGID_6_">
					<use xlink:href="#SVGID_5_"  style="overflow:visible;"/>
				</clipPath>
				<polygon class="st6" points="90.3,136.2 690.3,137.8 690.3,461.1 90.3,459.5 				"/>
			</g>
			<g>
				<defs>
					<path id="SVGID_7_" d="M690.3,251.3c0,116.8-134.3,211.7-300,211.7c-165.7-0.1-300-94.8-300-211.7s134.3-211.7,300-211.7
						S690.3,134.4,690.3,251.3z"/>
				</defs>
				<clipPath id="SVGID_8_">
					<use xlink:href="#SVGID_7_"  style="overflow:visible;"/>
				</clipPath>
				<polygon class="st7" points="690.3,137.8 90.3,136.2 90.3,39.6 690.3,39.6 				"/>
			</g>
		</g>
	</g>
	<g class="st1">
		<g>
			<defs>
				<ellipse id="SVGID_9_" cx="400.5" cy="399.5" rx="396.4" ry="399.5"/>
			</defs>
			<clipPath id="SVGID_10_">
				<use xlink:href="#SVGID_9_"  style="overflow:visible;"/>
			</clipPath>
			<g class="st8">
				<g>
					<g>
						<g>
							<defs>
								<rect id="SVGID_11_" x="-292.4" y="-64.2" width="1393.3" height="955.6"/>
							</defs>
							<clipPath id="SVGID_12_">
								<use xlink:href="#SVGID_11_"  style="overflow:visible;"/>
							</clipPath>
							<g class="st9">
								<rect x="-292.4" y="-64.2" width="1393.3" height="318.5"/>
							</g>
						</g>
					</g>
					<g>
						<g>
							<defs>
								<rect id="SVGID_13_" x="-292.4" y="-64.2" width="1393.3" height="955.6"/>
							</defs>
							<clipPath id="SVGID_14_">
								<use xlink:href="#SVGID_13_"  style="overflow:visible;"/>
							</clipPath>
							<g class="st10">
								<rect x="-292.4" y="254.2" class="st11" width="1393.3" height="318.5"/>
							</g>
						</g>
					</g>
					<g>
						<g>
							<defs>
								<rect id="SVGID_15_" x="-292.4" y="-64.2" width="1393.3" height="955.6"/>
							</defs>
							<clipPath id="SVGID_16_">
								<use xlink:href="#SVGID_15_"  style="overflow:visible;"/>
							</clipPath>
							<g class="st12">
								<rect x="-292.4" y="572.8" class="st13" width="1393.3" height="318.5"/>
							</g>
						</g>
					</g>
				</g>
			</g>
		</g>
		<g>
			<defs>
				<ellipse id="SVGID_17_" cx="400.5" cy="399.5" rx="396.4" ry="399.5"/>
			</defs>
			<clipPath id="SVGID_18_">
				<use xlink:href="#SVGID_17_"  style="overflow:visible;"/>
			</clipPath>
		</g>
	</g>
</g>
<g>
	<defs>
		<circle id="SVGID_19_" cx="400.1" cy="400.5" r="399.1"/>
	</defs>
	<clipPath id="SVGID_20_">
		<use xlink:href="#SVGID_19_"  style="overflow:visible;"/>
	</clipPath>
	<g class="st14">
		<g>
			<rect x="-352.4" y="3.1" class="st3" width="1509.3" height="795.2"/>
			<polygon class="st15" points="1157.1,321.3 492.5,321.3 492.5,3.2 311.1,3.2 311.1,321.3 -351.7,321.3 -351.7,480.3 311.1,480.3 
				311.1,798.3 492.5,798.3 492.5,480.3 1157.1,480.3 			"/>
		</g>
		<g>
			<polygon class="st16" points="-352.4,95.7 -352.4,268.9 -23.2,268.9 			"/>
			<polygon class="st16" points="-170.7,3.1 -175.6,3.3 251.3,229 251.3,3.1 			"/>
			<polygon class="st15" points="154.2,267.8 -352.4,3.1 -352.4,65.5 33.5,267.8 			"/>
			<polygon class="st15" points="650.7,533.6 1157.3,798.3 1157.3,735.9 771.4,533.6 			"/>
		</g>
		<g>
			<polygon class="st16" points="-352.4,707 -352.4,533.9 -23.2,533.9 			"/>
			<polygon class="st16" points="-170.7,799.6 -175.6,799.4 251.3,573.7 251.3,799.6 			"/>
			<polygon class="st15" points="151.7,533.6 -352,798.1 -234.2,798.2 251.8,544.4 251.8,533.6 			"/>
		</g>
		<g>
			<polygon class="st16" points="1157.3,95.7 1157.3,268.8 828.1,268.8 			"/>
			<polygon class="st16" points="975.7,3.1 980.5,3.3 553.7,229 553.7,3.1 			"/>
			<polygon class="st15" points="1156.9,3.4 1043.6,3.4 554.1,259.1 554.1,268.1 657.7,268.1 			"/>
		</g>
		<g>
			<polygon class="st16" points="1157.3,706.9 1157.3,533.8 828.1,533.8 			"/>
			<polygon class="st16" points="975.7,799.6 980.5,799.4 553.7,573.7 553.7,799.6 			"/>
		</g>
	</g>
</g>
</svg>
