<?xml version="1.0" encoding="utf-8"?>
<!-- Generator: Adobe Illustrator 23.0.3, SVG Export Plug-In . SVG Version: 6.00 Build 0)  -->
<svg version="1.1" id="Camada_1" xmlns="http://www.w3.org/2000/svg" xmlns:xlink="http://www.w3.org/1999/xlink" x="0px" y="0px"
	 viewBox="0 0 800 800" style="enable-background:new 0 0 800 800;" xml:space="preserve">
<style type="text/css">
	.st0{clip-path:url(#SVGID_2_);}
	.st1{clip-path:url(#SVGID_4_);fill:#CA2027;}
	.st2{clip-path:url(#SVGID_6_);fill:#FFFFFF;}
	.st3{clip-path:url(#SVGID_8_);fill:#CA2027;}
	.st4{clip-path:url(#SVGID_10_);fill:#FFFFFF;}
	.st5{clip-path:url(#SVGID_12_);fill:#CA2027;}
	.st6{clip-path:url(#SVGID_14_);fill:#FFFFFF;}
	.st7{clip-path:url(#SVGID_16_);fill:#CA2027;}
	.st8{clip-path:url(#SVGID_18_);fill:#FFFFFF;}
	.st9{clip-path:url(#SVGID_20_);fill:#CA2027;}
	.st10{clip-path:url(#SVGID_22_);fill:#FFFFFF;}
	.st11{clip-path:url(#SVGID_24_);fill:#CA2027;}
	.st12{clip-path:url(#SVGID_26_);fill:#FFFFFF;}
	.st13{clip-path:url(#SVGID_28_);fill:#CA2027;}
	.st14{clip-path:url(#SVGID_30_);fill:#2B3561;}
	.st15{clip-path:url(#SVGID_32_);fill:#FFFFFF;}
	.st16{clip-path:url(#SVGID_34_);fill:#FFFFFF;}
	.st17{clip-path:url(#SVGID_36_);fill:#FFFFFF;}
	.st18{clip-path:url(#SVGID_38_);fill:#FFFFFF;}
	.st19{clip-path:url(#SVGID_40_);fill:#FFFFFF;}
	.st20{clip-path:url(#SVGID_42_);fill:#FFFFFF;}
	.st21{clip-path:url(#SVGID_44_);fill:#FFFFFF;}
	.st22{clip-path:url(#SVGID_46_);fill:#FFFFFF;}
	.st23{clip-path:url(#SVGID_48_);fill:#FFFFFF;}
	.st24{clip-path:url(#SVGID_50_);fill:#FFFFFF;}
	.st25{clip-path:url(#SVGID_52_);fill:#FFFFFF;}
	.st26{clip-path:url(#SVGID_54_);fill:#FFFFFF;}
	.st27{clip-path:url(#SVGID_56_);fill:#FFFFFF;}
	.st28{clip-path:url(#SVGID_58_);fill:#FFFFFF;}
	.st29{clip-path:url(#SVGID_60_);fill:#FFFFFF;}
	.st30{clip-path:url(#SVGID_62_);fill:#FFFFFF;}
	.st31{clip-path:url(#SVGID_64_);fill:#FFFFFF;}
	.st32{clip-path:url(#SVGID_66_);fill:#FFFFFF;}
	.st33{clip-path:url(#SVGID_68_);fill:#FFFFFF;}
	.st34{clip-path:url(#SVGID_70_);fill:#FFFFFF;}
	.st35{clip-path:url(#SVGID_72_);fill:#FFFFFF;}
	.st36{clip-path:url(#SVGID_74_);fill:#FFFFFF;}
	.st37{clip-path:url(#SVGID_76_);fill:#FFFFFF;}
	.st38{clip-path:url(#SVGID_78_);fill:#FFFFFF;}
	.st39{clip-path:url(#SVGID_80_);fill:#FFFFFF;}
	.st40{clip-path:url(#SVGID_82_);fill:#FFFFFF;}
	.st41{clip-path:url(#SVGID_84_);fill:#FFFFFF;}
	.st42{clip-path:url(#SVGID_86_);fill:#FFFFFF;}
	.st43{clip-path:url(#SVGID_88_);fill:#FFFFFF;}
	.st44{clip-path:url(#SVGID_90_);fill:#FFFFFF;}
	.st45{clip-path:url(#SVGID_92_);fill:#FFFFFF;}
	.st46{clip-path:url(#SVGID_94_);fill:#FFFFFF;}
	.st47{clip-path:url(#SVGID_96_);fill:#FFFFFF;}
	.st48{clip-path:url(#SVGID_98_);fill:#FFFFFF;}
	.st49{clip-path:url(#SVGID_100_);fill:#FFFFFF;}
	.st50{clip-path:url(#SVGID_102_);fill:#FFFFFF;}
	.st51{clip-path:url(#SVGID_104_);fill:#FFFFFF;}
	.st52{clip-path:url(#SVGID_106_);fill:#FFFFFF;}
	.st53{clip-path:url(#SVGID_108_);fill:#FFFFFF;}
	.st54{clip-path:url(#SVGID_110_);fill:#FFFFFF;}
	.st55{clip-path:url(#SVGID_112_);fill:#FFFFFF;}
	.st56{clip-path:url(#SVGID_114_);fill:#FFFFFF;}
	.st57{clip-path:url(#SVGID_116_);fill:#FFFFFF;}
	.st58{clip-path:url(#SVGID_118_);fill:#FFFFFF;}
	.st59{clip-path:url(#SVGID_120_);fill:#FFFFFF;}
	.st60{clip-path:url(#SVGID_122_);fill:#FFFFFF;}
	.st61{clip-path:url(#SVGID_124_);fill:#FFFFFF;}
	.st62{clip-path:url(#SVGID_126_);fill:#FFFFFF;}
	.st63{clip-path:url(#SVGID_128_);fill:#FFFFFF;}
	.st64{clip-path:url(#SVGID_130_);fill:#FFFFFF;}
</style>
<g>
	<g>
		<g>
			<g>
				<defs>
					<path id="SVGID_1_" d="M799.5,401c0,220.6-178.8,399.4-399.4,399.4C179.3,800.5,0.5,621.6,0.5,401S179.3,1.6,399.9,1.6
						S799.5,180.4,799.5,401z"/>
				</defs>
				<clipPath id="SVGID_2_">
					<use xlink:href="#SVGID_1_"  style="overflow:visible;"/>
				</clipPath>
				<g class="st0">
					<g>
						<g>
							<defs>
								<rect id="SVGID_3_" x="-211.5" y="1.6" width="1382.5" height="806.5"/>
							</defs>
							<clipPath id="SVGID_4_">
								<use xlink:href="#SVGID_3_"  style="overflow:visible;"/>
							</clipPath>
							<rect x="-211.5" y="746" class="st1" width="1382.5" height="62"/>
						</g>
						<g>
							<defs>
								<rect id="SVGID_5_" x="-211.5" y="1.6" width="1382.5" height="806.5"/>
							</defs>
							<clipPath id="SVGID_6_">
								<use xlink:href="#SVGID_5_"  style="overflow:visible;"/>
							</clipPath>
							<rect x="-211.5" y="684" class="st2" width="1382.5" height="62.1"/>
						</g>
						<g>
							<defs>
								<rect id="SVGID_7_" x="-211.5" y="1.6" width="1382.5" height="806.5"/>
							</defs>
							<clipPath id="SVGID_8_">
								<use xlink:href="#SVGID_7_"  style="overflow:visible;"/>
							</clipPath>
							<rect x="-211.5" y="622" class="st3" width="1382.5" height="62"/>
						</g>
						<g>
							<defs>
								<rect id="SVGID_9_" x="-211.5" y="1.6" width="1382.5" height="806.5"/>
							</defs>
							<clipPath id="SVGID_10_">
								<use xlink:href="#SVGID_9_"  style="overflow:visible;"/>
							</clipPath>
							<rect x="-211.5" y="559.9" class="st4" width="1382.5" height="62"/>
						</g>
						<g>
							<defs>
								<rect id="SVGID_11_" x="-211.5" y="1.6" width="1382.5" height="806.5"/>
							</defs>
							<clipPath id="SVGID_12_">
								<use xlink:href="#SVGID_11_"  style="overflow:visible;"/>
							</clipPath>
							<rect x="-211.5" y="497.9" class="st5" width="1382.5" height="62.1"/>
						</g>
						<g>
							<defs>
								<rect id="SVGID_13_" x="-211.5" y="1.6" width="1382.5" height="806.5"/>
							</defs>
							<clipPath id="SVGID_14_">
								<use xlink:href="#SVGID_13_"  style="overflow:visible;"/>
							</clipPath>
							<rect x="-211.5" y="435.9" class="st6" width="1382.5" height="62"/>
						</g>
						<g>
							<defs>
								<rect id="SVGID_15_" x="-211.5" y="1.6" width="1382.5" height="806.5"/>
							</defs>
							<clipPath id="SVGID_16_">
								<use xlink:href="#SVGID_15_"  style="overflow:visible;"/>
							</clipPath>
							<rect x="-211.5" y="373.8" class="st7" width="1382.5" height="62"/>
						</g>
						<g>
							<defs>
								<rect id="SVGID_17_" x="-211.5" y="1.6" width="1382.5" height="806.5"/>
							</defs>
							<clipPath id="SVGID_18_">
								<use xlink:href="#SVGID_17_"  style="overflow:visible;"/>
							</clipPath>
							<rect x="-211.5" y="311.8" class="st8" width="1382.5" height="62"/>
						</g>
						<g>
							<defs>
								<rect id="SVGID_19_" x="-211.5" y="1.6" width="1382.5" height="806.5"/>
							</defs>
							<clipPath id="SVGID_20_">
								<use xlink:href="#SVGID_19_"  style="overflow:visible;"/>
							</clipPath>
							<rect x="-211.5" y="249.7" class="st9" width="1382.5" height="62"/>
						</g>
						<g>
							<defs>
								<rect id="SVGID_21_" x="-211.5" y="1.6" width="1382.5" height="806.5"/>
							</defs>
							<clipPath id="SVGID_22_">
								<use xlink:href="#SVGID_21_"  style="overflow:visible;"/>
							</clipPath>
							<rect x="-211.5" y="187.7" class="st10" width="1382.5" height="62.1"/>
						</g>
						<g>
							<defs>
								<rect id="SVGID_23_" x="-211.5" y="1.6" width="1382.5" height="806.5"/>
							</defs>
							<clipPath id="SVGID_24_">
								<use xlink:href="#SVGID_23_"  style="overflow:visible;"/>
							</clipPath>
							<rect x="-211.5" y="125.6" class="st11" width="1382.5" height="62"/>
						</g>
						<g>
							<defs>
								<rect id="SVGID_25_" x="-211.5" y="1.6" width="1382.5" height="806.5"/>
							</defs>
							<clipPath id="SVGID_26_">
								<use xlink:href="#SVGID_25_"  style="overflow:visible;"/>
							</clipPath>
							<rect x="-211.5" y="63.7" class="st12" width="1382.5" height="62"/>
						</g>
						<g>
							<defs>
								<rect id="SVGID_27_" x="-211.5" y="1.6" width="1382.5" height="806.5"/>
							</defs>
							<clipPath id="SVGID_28_">
								<use xlink:href="#SVGID_27_"  style="overflow:visible;"/>
							</clipPath>
							<rect x="-211.5" y="1.6" class="st13" width="1382.5" height="62.1"/>
						</g>
						<g>
							<defs>
								<rect id="SVGID_29_" x="-211.5" y="1.6" width="1382.5" height="806.5"/>
							</defs>
							<clipPath id="SVGID_30_">
								<use xlink:href="#SVGID_29_"  style="overflow:visible;"/>
							</clipPath>
							<rect x="-211.5" y="1.6" class="st14" width="631.2" height="434.3"/>
						</g>
						<g>
							<defs>
								<rect id="SVGID_31_" x="-211.5" y="1.6" width="1382.5" height="806.5"/>
							</defs>
							<clipPath id="SVGID_32_">
								<use xlink:href="#SVGID_31_"  style="overflow:visible;"/>
							</clipPath>
							<polygon class="st15" points="-154.6,49.4 -149.2,65.9 -132,65.9 -145.9,76 -140.6,92.4 -154.6,82.2 -168.5,92.4 -163.2,76 
								-177.2,65.9 -159.9,65.9 							"/>
						</g>
						<g>
							<defs>
								<rect id="SVGID_33_" x="-211.5" y="1.6" width="1382.5" height="806.5"/>
							</defs>
							<clipPath id="SVGID_34_">
								<use xlink:href="#SVGID_33_"  style="overflow:visible;"/>
							</clipPath>
							<polygon class="st16" points="-154.6,121.9 -149.2,138.3 -132,138.3 -145.9,148.5 -140.6,164.9 -154.6,154.7 -168.5,164.9 
								-163.2,148.5 -177.2,138.3 -159.9,138.3 							"/>
						</g>
						<g>
							<defs>
								<rect id="SVGID_35_" x="-211.5" y="1.6" width="1382.5" height="806.5"/>
							</defs>
							<clipPath id="SVGID_36_">
								<use xlink:href="#SVGID_35_"  style="overflow:visible;"/>
							</clipPath>
							<polygon class="st17" points="-154.6,194.4 -149.2,210.8 -132,210.8 -145.9,221 -140.6,237.4 -154.6,227.2 -168.5,237.4 
								-163.2,221 -177.2,210.8 -159.9,210.8 							"/>
						</g>
						<g>
							<defs>
								<rect id="SVGID_37_" x="-211.5" y="1.6" width="1382.5" height="806.5"/>
							</defs>
							<clipPath id="SVGID_38_">
								<use xlink:href="#SVGID_37_"  style="overflow:visible;"/>
							</clipPath>
							<polygon class="st18" points="-154.6,266.9 -149.2,283.3 -132,283.3 -145.9,293.5 -140.6,309.9 -154.6,299.7 -168.5,309.9 
								-163.2,293.5 -177.2,283.3 -159.9,283.3 							"/>
						</g>
						<g>
							<defs>
								<rect id="SVGID_39_" x="-211.5" y="1.6" width="1382.5" height="806.5"/>
							</defs>
							<clipPath id="SVGID_40_">
								<use xlink:href="#SVGID_39_"  style="overflow:visible;"/>
							</clipPath>
							<polygon class="st19" points="-154.6,339.4 -149.2,355.8 -132,355.8 -145.9,366 -140.6,382.4 -154.6,372.2 -168.5,382.4 
								-163.2,366 -177.2,355.8 -159.9,355.8 							"/>
						</g>
						<g>
							<defs>
								<rect id="SVGID_41_" x="-211.5" y="1.6" width="1382.5" height="806.5"/>
							</defs>
							<clipPath id="SVGID_42_">
								<use xlink:href="#SVGID_41_"  style="overflow:visible;"/>
							</clipPath>
							<polygon class="st20" points="-104.1,87.7 -98.7,104.1 -81.5,104.1 -95.5,114.2 -90.2,130.6 -104.1,120.5 -118.1,130.6 
								-112.7,114.2 -126.7,104.1 -109.4,104.1 							"/>
						</g>
						<g>
							<defs>
								<rect id="SVGID_43_" x="-211.5" y="1.6" width="1382.5" height="806.5"/>
							</defs>
							<clipPath id="SVGID_44_">
								<use xlink:href="#SVGID_43_"  style="overflow:visible;"/>
							</clipPath>
							<polygon class="st21" points="-104.1,160.1 -98.7,176.5 -81.5,176.5 -95.5,186.7 -90.2,203.1 -104.1,193 -118.1,203.1 
								-112.7,186.7 -126.7,176.5 -109.4,176.5 							"/>
						</g>
						<g>
							<defs>
								<rect id="SVGID_45_" x="-211.5" y="1.6" width="1382.5" height="806.5"/>
							</defs>
							<clipPath id="SVGID_46_">
								<use xlink:href="#SVGID_45_"  style="overflow:visible;"/>
							</clipPath>
							<polygon class="st22" points="-104.1,232.6 -98.7,249 -81.5,249 -95.5,259.2 -90.2,275.6 -104.1,265.5 -118.1,275.6 
								-112.7,259.2 -126.7,249 -109.4,249 							"/>
						</g>
						<g>
							<defs>
								<rect id="SVGID_47_" x="-211.5" y="1.6" width="1382.5" height="806.5"/>
							</defs>
							<clipPath id="SVGID_48_">
								<use xlink:href="#SVGID_47_"  style="overflow:visible;"/>
							</clipPath>
							<polygon class="st23" points="-104.1,305.1 -98.7,321.5 -81.5,321.5 -95.5,331.7 -90.2,348 -104.1,337.9 -118.1,348 
								-112.7,331.7 -126.7,321.5 -109.4,321.5 							"/>
						</g>
						<g>
							<defs>
								<rect id="SVGID_49_" x="-211.5" y="1.6" width="1382.5" height="806.5"/>
							</defs>
							<clipPath id="SVGID_50_">
								<use xlink:href="#SVGID_49_"  style="overflow:visible;"/>
							</clipPath>
							<polygon class="st24" points="-53,49.4 -47.6,65.9 -30.4,65.9 -44.4,76 -39,92.4 -53,82.2 -66.9,92.4 -61.6,76 -75.5,65.9 
								-58.3,65.9 							"/>
						</g>
						<g>
							<defs>
								<rect id="SVGID_51_" x="-211.5" y="1.6" width="1382.5" height="806.5"/>
							</defs>
							<clipPath id="SVGID_52_">
								<use xlink:href="#SVGID_51_"  style="overflow:visible;"/>
							</clipPath>
							<polygon class="st25" points="-53,121.9 -47.6,138.3 -30.4,138.3 -44.4,148.5 -39,164.9 -53,154.7 -66.9,164.9 -61.6,148.5 
								-75.5,138.3 -58.3,138.3 							"/>
						</g>
						<g>
							<defs>
								<rect id="SVGID_53_" x="-211.5" y="1.6" width="1382.5" height="806.5"/>
							</defs>
							<clipPath id="SVGID_54_">
								<use xlink:href="#SVGID_53_"  style="overflow:visible;"/>
							</clipPath>
							<polygon class="st26" points="-53,194.4 -47.6,210.8 -30.4,210.8 -44.4,221 -39,237.4 -53,227.2 -66.9,237.4 -61.6,221 
								-75.5,210.8 -58.3,210.8 							"/>
						</g>
						<g>
							<defs>
								<rect id="SVGID_55_" x="-211.5" y="1.6" width="1382.5" height="806.5"/>
							</defs>
							<clipPath id="SVGID_56_">
								<use xlink:href="#SVGID_55_"  style="overflow:visible;"/>
							</clipPath>
							<polygon class="st27" points="-53,266.9 -47.6,283.3 -30.4,283.3 -44.4,293.5 -39,309.9 -53,299.7 -66.9,309.9 -61.6,293.5 
								-75.5,283.3 -58.3,283.3 							"/>
						</g>
						<g>
							<defs>
								<rect id="SVGID_57_" x="-211.5" y="1.6" width="1382.5" height="806.5"/>
							</defs>
							<clipPath id="SVGID_58_">
								<use xlink:href="#SVGID_57_"  style="overflow:visible;"/>
							</clipPath>
							<polygon class="st28" points="-53,339.4 -47.6,355.8 -30.4,355.8 -44.4,366 -39,382.4 -53,372.2 -66.9,382.4 -61.6,366 
								-75.5,355.8 -58.3,355.8 							"/>
						</g>
						<g>
							<defs>
								<rect id="SVGID_59_" x="-211.5" y="1.6" width="1382.5" height="806.5"/>
							</defs>
							<clipPath id="SVGID_60_">
								<use xlink:href="#SVGID_59_"  style="overflow:visible;"/>
							</clipPath>
							<polygon class="st29" points="-2.5,87.7 2.9,104.1 20.1,104.1 6.2,114.2 11.5,130.6 -2.5,120.5 -16.5,130.6 -11.1,114.2 
								-25.1,104.1 -7.8,104.1 							"/>
						</g>
						<g>
							<defs>
								<rect id="SVGID_61_" x="-211.5" y="1.6" width="1382.5" height="806.5"/>
							</defs>
							<clipPath id="SVGID_62_">
								<use xlink:href="#SVGID_61_"  style="overflow:visible;"/>
							</clipPath>
							<polygon class="st30" points="-2.5,160.1 2.9,176.5 20.1,176.5 6.2,186.7 11.5,203.1 -2.5,193 -16.5,203.1 -11.1,186.7 
								-25.1,176.5 -7.8,176.5 							"/>
						</g>
						<g>
							<defs>
								<rect id="SVGID_63_" x="-211.5" y="1.6" width="1382.5" height="806.5"/>
							</defs>
							<clipPath id="SVGID_64_">
								<use xlink:href="#SVGID_63_"  style="overflow:visible;"/>
							</clipPath>
							<polygon class="st31" points="-2.5,232.6 2.9,249 20.1,249 6.2,259.2 11.5,275.6 -2.5,265.5 -16.5,275.6 -11.1,259.2 
								-25.1,249 -7.8,249 							"/>
						</g>
						<g>
							<defs>
								<rect id="SVGID_65_" x="-211.5" y="1.6" width="1382.5" height="806.5"/>
							</defs>
							<clipPath id="SVGID_66_">
								<use xlink:href="#SVGID_65_"  style="overflow:visible;"/>
							</clipPath>
							<polygon class="st32" points="-2.5,305.1 2.9,321.5 20.1,321.5 6.2,331.7 11.5,348 -2.5,337.9 -16.5,348 -11.1,331.7 
								-25.1,321.5 -7.8,321.5 							"/>
						</g>
						<g>
							<defs>
								<rect id="SVGID_67_" x="-211.5" y="1.6" width="1382.5" height="806.5"/>
							</defs>
							<clipPath id="SVGID_68_">
								<use xlink:href="#SVGID_67_"  style="overflow:visible;"/>
							</clipPath>
							<polygon class="st33" points="48.6,49.4 54,65.9 71.3,65.9 57.3,76 62.6,92.4 48.6,82.2 34.7,92.4 40,76 26.1,65.9 
								43.3,65.9 							"/>
						</g>
						<g>
							<defs>
								<rect id="SVGID_69_" x="-211.5" y="1.6" width="1382.5" height="806.5"/>
							</defs>
							<clipPath id="SVGID_70_">
								<use xlink:href="#SVGID_69_"  style="overflow:visible;"/>
							</clipPath>
							<polygon class="st34" points="48.6,121.9 54,138.3 71.3,138.3 57.3,148.5 62.6,164.9 48.6,154.7 34.7,164.9 40,148.5 
								26.1,138.3 43.3,138.3 							"/>
						</g>
						<g>
							<defs>
								<rect id="SVGID_71_" x="-211.5" y="1.6" width="1382.5" height="806.5"/>
							</defs>
							<clipPath id="SVGID_72_">
								<use xlink:href="#SVGID_71_"  style="overflow:visible;"/>
							</clipPath>
							<polygon class="st35" points="48.6,194.4 54,210.8 71.3,210.8 57.3,221 62.6,237.4 48.6,227.2 34.7,237.4 40,221 26.1,210.8 
								43.3,210.8 							"/>
						</g>
						<g>
							<defs>
								<rect id="SVGID_73_" x="-211.5" y="1.6" width="1382.5" height="806.5"/>
							</defs>
							<clipPath id="SVGID_74_">
								<use xlink:href="#SVGID_73_"  style="overflow:visible;"/>
							</clipPath>
							<polygon class="st36" points="48.6,266.9 54,283.3 71.3,283.3 57.3,293.5 62.6,309.9 48.6,299.7 34.7,309.9 40,293.5 
								26.1,283.3 43.3,283.3 							"/>
						</g>
						<g>
							<defs>
								<rect id="SVGID_75_" x="-211.5" y="1.6" width="1382.5" height="806.5"/>
							</defs>
							<clipPath id="SVGID_76_">
								<use xlink:href="#SVGID_75_"  style="overflow:visible;"/>
							</clipPath>
							<polygon class="st37" points="48.6,339.4 54,355.8 71.3,355.8 57.3,366 62.6,382.4 48.6,372.2 34.7,382.4 40,366 26.1,355.8 
								43.3,355.8 							"/>
						</g>
						<g>
							<defs>
								<rect id="SVGID_77_" x="-211.5" y="1.6" width="1382.5" height="806.5"/>
							</defs>
							<clipPath id="SVGID_78_">
								<use xlink:href="#SVGID_77_"  style="overflow:visible;"/>
							</clipPath>
							<polygon class="st38" points="99.1,87.7 104.5,104.1 121.7,104.1 107.8,114.2 113.1,130.6 99.1,120.5 85.2,130.6 90.5,114.2 
								76.6,104.1 93.8,104.1 							"/>
						</g>
						<g>
							<defs>
								<rect id="SVGID_79_" x="-211.5" y="1.6" width="1382.5" height="806.5"/>
							</defs>
							<clipPath id="SVGID_80_">
								<use xlink:href="#SVGID_79_"  style="overflow:visible;"/>
							</clipPath>
							<polygon class="st39" points="99.1,160.1 104.5,176.5 121.7,176.5 107.8,186.7 113.1,203.1 99.1,193 85.2,203.1 90.5,186.7 
								76.6,176.5 93.8,176.5 							"/>
						</g>
						<g>
							<defs>
								<rect id="SVGID_81_" x="-211.5" y="1.6" width="1382.5" height="806.5"/>
							</defs>
							<clipPath id="SVGID_82_">
								<use xlink:href="#SVGID_81_"  style="overflow:visible;"/>
							</clipPath>
							<polygon class="st40" points="99.1,232.6 104.5,249 121.7,249 107.8,259.2 113.1,275.6 99.1,265.5 85.2,275.6 90.5,259.2 
								76.6,249 93.8,249 							"/>
						</g>
						<g>
							<defs>
								<rect id="SVGID_83_" x="-211.5" y="1.6" width="1382.5" height="806.5"/>
							</defs>
							<clipPath id="SVGID_84_">
								<use xlink:href="#SVGID_83_"  style="overflow:visible;"/>
							</clipPath>
							<polygon class="st41" points="99.1,305.1 104.5,321.5 121.7,321.5 107.8,331.7 113.1,348 99.1,337.9 85.2,348 90.5,331.7 
								76.6,321.5 93.8,321.5 							"/>
						</g>
						<g>
							<defs>
								<rect id="SVGID_85_" x="-211.5" y="1.6" width="1382.5" height="806.5"/>
							</defs>
							<clipPath id="SVGID_86_">
								<use xlink:href="#SVGID_85_"  style="overflow:visible;"/>
							</clipPath>
							<polygon class="st42" points="150.3,49.4 155.6,65.9 172.9,65.9 158.9,76 164.2,92.4 150.3,82.2 136.3,92.4 141.7,76 
								127.7,65.9 145,65.9 							"/>
						</g>
						<g>
							<defs>
								<rect id="SVGID_87_" x="-211.5" y="1.6" width="1382.5" height="806.5"/>
							</defs>
							<clipPath id="SVGID_88_">
								<use xlink:href="#SVGID_87_"  style="overflow:visible;"/>
							</clipPath>
							<polygon class="st43" points="150.3,121.9 155.6,138.3 172.9,138.3 158.9,148.5 164.2,164.9 150.3,154.7 136.3,164.9 
								141.7,148.5 127.7,138.3 145,138.3 							"/>
						</g>
						<g>
							<defs>
								<rect id="SVGID_89_" x="-211.5" y="1.6" width="1382.5" height="806.5"/>
							</defs>
							<clipPath id="SVGID_90_">
								<use xlink:href="#SVGID_89_"  style="overflow:visible;"/>
							</clipPath>
							<polygon class="st44" points="150.3,194.4 155.6,210.8 172.9,210.8 158.9,221 164.2,237.4 150.3,227.2 136.3,237.4 
								141.7,221 127.7,210.8 145,210.8 							"/>
						</g>
						<g>
							<defs>
								<rect id="SVGID_91_" x="-211.5" y="1.6" width="1382.5" height="806.5"/>
							</defs>
							<clipPath id="SVGID_92_">
								<use xlink:href="#SVGID_91_"  style="overflow:visible;"/>
							</clipPath>
							<polygon class="st45" points="150.3,266.9 155.6,283.3 172.9,283.3 158.9,293.5 164.2,309.9 150.3,299.7 136.3,309.9 
								141.7,293.5 127.7,283.3 145,283.3 							"/>
						</g>
						<g>
							<defs>
								<rect id="SVGID_93_" x="-211.5" y="1.6" width="1382.5" height="806.5"/>
							</defs>
							<clipPath id="SVGID_94_">
								<use xlink:href="#SVGID_93_"  style="overflow:visible;"/>
							</clipPath>
							<polygon class="st46" points="150.3,339.4 155.6,355.8 172.9,355.8 158.9,366 164.2,382.4 150.3,372.2 136.3,382.4 
								141.7,366 127.7,355.8 145,355.8 							"/>
						</g>
						<g>
							<defs>
								<rect id="SVGID_95_" x="-211.5" y="1.6" width="1382.5" height="806.5"/>
							</defs>
							<clipPath id="SVGID_96_">
								<use xlink:href="#SVGID_95_"  style="overflow:visible;"/>
							</clipPath>
							<polygon class="st47" points="200.8,87.7 206.1,104.1 223.3,104.1 209.4,114.2 214.7,130.6 200.8,120.5 186.8,130.6 
								192.1,114.2 178.2,104.1 195.4,104.1 							"/>
						</g>
						<g>
							<defs>
								<rect id="SVGID_97_" x="-211.5" y="1.6" width="1382.5" height="806.5"/>
							</defs>
							<clipPath id="SVGID_98_">
								<use xlink:href="#SVGID_97_"  style="overflow:visible;"/>
							</clipPath>
							<polygon class="st48" points="200.8,160.1 206.1,176.5 223.3,176.5 209.4,186.7 214.7,203.1 200.8,193 186.8,203.1 
								192.1,186.7 178.2,176.5 195.4,176.5 							"/>
						</g>
						<g>
							<defs>
								<rect id="SVGID_99_" x="-211.5" y="1.6" width="1382.5" height="806.5"/>
							</defs>
							<clipPath id="SVGID_100_">
								<use xlink:href="#SVGID_99_"  style="overflow:visible;"/>
							</clipPath>
							<polygon class="st49" points="200.8,232.6 206.1,249 223.3,249 209.4,259.2 214.7,275.6 200.8,265.5 186.8,275.6 
								192.1,259.2 178.2,249 195.4,249 							"/>
						</g>
						<g>
							<defs>
								<rect id="SVGID_101_" x="-211.5" y="1.6" width="1382.5" height="806.5"/>
							</defs>
							<clipPath id="SVGID_102_">
								<use xlink:href="#SVGID_101_"  style="overflow:visible;"/>
							</clipPath>
							<polygon class="st50" points="200.8,305.1 206.1,321.5 223.3,321.5 209.4,331.7 214.7,348 200.8,337.9 186.8,348 
								192.1,331.7 178.2,321.5 195.4,321.5 							"/>
						</g>
						<g>
							<defs>
								<rect id="SVGID_103_" x="-211.5" y="1.6" width="1382.5" height="806.5"/>
							</defs>
							<clipPath id="SVGID_104_">
								<use xlink:href="#SVGID_103_"  style="overflow:visible;"/>
							</clipPath>
							<polygon class="st51" points="251.9,49.4 257.3,65.9 274.5,65.9 260.5,76 265.8,92.4 251.9,82.2 237.9,92.4 243.3,76 
								229.3,65.9 246.6,65.9 							"/>
						</g>
						<g>
							<defs>
								<rect id="SVGID_105_" x="-211.5" y="1.6" width="1382.5" height="806.5"/>
							</defs>
							<clipPath id="SVGID_106_">
								<use xlink:href="#SVGID_105_"  style="overflow:visible;"/>
							</clipPath>
							<polygon class="st52" points="251.9,121.9 257.3,138.3 274.5,138.3 260.5,148.5 265.8,164.9 251.9,154.7 237.9,164.9 
								243.3,148.5 229.3,138.3 246.6,138.3 							"/>
						</g>
						<g>
							<defs>
								<rect id="SVGID_107_" x="-211.5" y="1.6" width="1382.5" height="806.5"/>
							</defs>
							<clipPath id="SVGID_108_">
								<use xlink:href="#SVGID_107_"  style="overflow:visible;"/>
							</clipPath>
							<polygon class="st53" points="251.9,194.4 257.3,210.8 274.5,210.8 260.5,221 265.8,237.4 251.9,227.2 237.9,237.4 
								243.3,221 229.3,210.8 246.6,210.8 							"/>
						</g>
						<g>
							<defs>
								<rect id="SVGID_109_" x="-211.5" y="1.6" width="1382.5" height="806.5"/>
							</defs>
							<clipPath id="SVGID_110_">
								<use xlink:href="#SVGID_109_"  style="overflow:visible;"/>
							</clipPath>
							<polygon class="st54" points="251.9,266.9 257.3,283.3 274.5,283.3 260.5,293.5 265.8,309.9 251.9,299.7 237.9,309.9 
								243.3,293.5 229.3,283.3 246.6,283.3 							"/>
						</g>
						<g>
							<defs>
								<rect id="SVGID_111_" x="-211.5" y="1.6" width="1382.5" height="806.5"/>
							</defs>
							<clipPath id="SVGID_112_">
								<use xlink:href="#SVGID_111_"  style="overflow:visible;"/>
							</clipPath>
							<polygon class="st55" points="251.9,339.4 257.3,355.8 274.5,355.8 260.5,366 265.8,382.4 251.9,372.2 237.9,382.4 
								243.3,366 229.3,355.8 246.6,355.8 							"/>
						</g>
						<g>
							<defs>
								<rect id="SVGID_113_" x="-211.5" y="1.6" width="1382.5" height="806.5"/>
							</defs>
							<clipPath id="SVGID_114_">
								<use xlink:href="#SVGID_113_"  style="overflow:visible;"/>
							</clipPath>
							<polygon class="st56" points="302.4,87.7 307.8,104.1 325,104.1 311,114.2 316.3,130.6 302.4,120.5 288.4,130.6 293.8,114.2 
								279.8,104.1 297,104.1 							"/>
						</g>
						<g>
							<defs>
								<rect id="SVGID_115_" x="-211.5" y="1.6" width="1382.5" height="806.5"/>
							</defs>
							<clipPath id="SVGID_116_">
								<use xlink:href="#SVGID_115_"  style="overflow:visible;"/>
							</clipPath>
							<polygon class="st57" points="302.4,160.1 307.8,176.5 325,176.5 311,186.7 316.3,203.1 302.4,193 288.4,203.1 293.8,186.7 
								279.8,176.5 297,176.5 							"/>
						</g>
						<g>
							<defs>
								<rect id="SVGID_117_" x="-211.5" y="1.6" width="1382.5" height="806.5"/>
							</defs>
							<clipPath id="SVGID_118_">
								<use xlink:href="#SVGID_117_"  style="overflow:visible;"/>
							</clipPath>
							<polygon class="st58" points="302.4,232.6 307.8,249 325,249 311,259.2 316.3,275.6 302.4,265.5 288.4,275.6 293.8,259.2 
								279.8,249 297,249 							"/>
						</g>
						<g>
							<defs>
								<rect id="SVGID_119_" x="-211.5" y="1.6" width="1382.5" height="806.5"/>
							</defs>
							<clipPath id="SVGID_120_">
								<use xlink:href="#SVGID_119_"  style="overflow:visible;"/>
							</clipPath>
							<polygon class="st59" points="302.4,305.1 307.8,321.5 325,321.5 311,331.7 316.3,348 302.4,337.9 288.4,348 293.8,331.7 
								279.8,321.5 297,321.5 							"/>
						</g>
						<g>
							<defs>
								<rect id="SVGID_121_" x="-211.5" y="1.6" width="1382.5" height="806.5"/>
							</defs>
							<clipPath id="SVGID_122_">
								<use xlink:href="#SVGID_121_"  style="overflow:visible;"/>
							</clipPath>
							<polygon class="st60" points="353.5,49.4 358.8,65.9 376.1,65.9 362.1,76 367.5,92.4 353.5,82.2 339.5,92.4 344.9,76 
								330.9,65.9 348.3,65.9 							"/>
						</g>
						<g>
							<defs>
								<rect id="SVGID_123_" x="-211.5" y="1.6" width="1382.5" height="806.5"/>
							</defs>
							<clipPath id="SVGID_124_">
								<use xlink:href="#SVGID_123_"  style="overflow:visible;"/>
							</clipPath>
							<polygon class="st61" points="353.5,121.9 358.8,138.3 376.1,138.3 362.1,148.5 367.5,164.9 353.5,154.7 339.5,164.9 
								344.9,148.5 330.9,138.3 348.3,138.3 							"/>
						</g>
						<g>
							<defs>
								<rect id="SVGID_125_" x="-211.5" y="1.6" width="1382.5" height="806.5"/>
							</defs>
							<clipPath id="SVGID_126_">
								<use xlink:href="#SVGID_125_"  style="overflow:visible;"/>
							</clipPath>
							<polygon class="st62" points="353.5,194.4 358.8,210.8 376.1,210.8 362.1,221 367.5,237.4 353.5,227.2 339.5,237.4 
								344.9,221 330.9,210.8 348.3,210.8 							"/>
						</g>
						<g>
							<defs>
								<rect id="SVGID_127_" x="-211.5" y="1.6" width="1382.5" height="806.5"/>
							</defs>
							<clipPath id="SVGID_128_">
								<use xlink:href="#SVGID_127_"  style="overflow:visible;"/>
							</clipPath>
							<polygon class="st63" points="353.5,266.9 358.8,283.3 376.1,283.3 362.1,293.5 367.5,309.9 353.5,299.7 339.5,309.9 
								344.9,293.5 330.9,283.3 348.3,283.3 							"/>
						</g>
						<g>
							<defs>
								<rect id="SVGID_129_" x="-211.5" y="1.6" width="1382.5" height="806.5"/>
							</defs>
							<clipPath id="SVGID_130_">
								<use xlink:href="#SVGID_129_"  style="overflow:visible;"/>
							</clipPath>
							<polygon class="st64" points="353.5,339.4 358.8,355.8 376.1,355.8 362.1,366 367.5,382.4 353.5,372.2 339.5,382.4 
								344.9,366 330.9,355.8 348.3,355.8 							"/>
						</g>
					</g>
				</g>
			</g>
		</g>
	</g>
</g>
</svg>
